<svg width="47" height="49" viewBox="0 0 47 49" fill="none" xmlns="http://www.w3.org/2000/svg">
<g id="ic_dropbox.svg" clip-path="url(#clip0_1_3952)">
<path id="Vector" fill-rule="evenodd" clip-rule="evenodd" d="M0.355757 9.24686L13.9105 0.326355L23.3957 8.30629L9.72872 16.8117L0.355757 9.24686ZM37.0622 16.8116L23.3957 8.30629L32.8808 0.3265L46.4355 9.24701L37.0622 16.8116ZM37.0622 16.8116L46.4351 24.3779L32.8805 33.2984L23.3953 25.3185L13.9102 33.2982L0.355469 24.3777L9.72872 16.8117L23.3953 25.3185L37.0622 16.8116ZM23.4233 27.0352L13.9106 34.992L9.83973 32.3127V35.3155L23.4233 43.5264L37.0067 35.3155V32.3127L32.936 34.992L23.4233 27.0352Z" fill="#0F82E2"/>
</g>
<defs>
<clipPath id="clip0_1_3952">
<rect width="46.08" height="48" fill="white" transform="translate(0.355469 0.307617)"/>
</clipPath>
</defs>
</svg>
